<svg xmlns="http://www.w3.org/2000/svg" viewBox="0 0 64 64" shape-rendering="crispEdges">
  <rect width="64" height="64" fill="transparent"/>
  <g>
    <rect x="24" y="8" width="8" height="8" fill="#ff4f24"/>
    <rect x="32" y="8" width="8" height="8" fill="#ff4f24"/>
    <rect x="16" y="16" width="8" height="8" fill="#ff4f24"/>
    <rect x="24" y="16" width="8" height="8" fill="#ff6a2a"/>
    <rect x="32" y="16" width="8" height="8" fill="#ff6a2a"/>
    <rect x="40" y="16" width="8" height="8" fill="#ff4f24"/>
    <rect x="16" y="24" width="8" height="8" fill="#ff4f24"/>
    <rect x="24" y="24" width="8" height="8" fill="#fff1e8"/>
    <rect x="32" y="24" width="8" height="8" fill="#ff4f24"/>
    <rect x="40" y="24" width="8" height="8" fill="#fff1e8"/>
    <rect x="48" y="24" width="8" height="8" fill="#ff4f24"/>
    <rect x="8" y="32" width="8" height="8" fill="#ff4f24"/>
    <rect x="16" y="32" width="8" height="8" fill="#ff4f24"/>
    <rect x="24" y="32" width="8" height="8" fill="#ff6a2a"/>
    <rect x="32" y="32" width="8" height="8" fill="#ff6a2a"/>
    <rect x="40" y="32" width="8" height="8" fill="#ff4f24"/>
    <rect x="48" y="32" width="8" height="8" fill="#ff4f24"/>
    <rect x="8" y="40" width="8" height="8" fill="#ff4f24"/>
    <rect x="24" y="40" width="8" height="8" fill="#ff4f24"/>
    <rect x="32" y="40" width="8" height="8" fill="#ff6a2a"/>
    <rect x="48" y="40" width="8" height="8" fill="#ff4f24"/>
    <rect x="16" y="48" width="8" height="8" fill="#ff6a2a"/>
    <rect x="32" y="48" width="8" height="8" fill="#ff4f24"/>
    <rect x="48" y="48" width="8" height="8" fill="#ff6a2a"/>
  </g>
</svg>
